<svg xmlns="http://www.w3.org/2000/svg" viewBox="0 0 480 812" role="img" aria-label="Архітектура Alert Server: зовнішні сервіси живлять сервер, який передає дані застосунку та його головному вікну" font-family="'Segoe UI', system-ui, -apple-system, Roboto, Helvetica, Arial, sans-serif">
<style>
    .band-ext { fill: #eff6ff; stroke: #93c5fd; }
    .band-srv { fill: #fff7ed; stroke: #fdba74; }
    .band-app { fill: #f0fdf4; stroke: #86efac; }
    .band-win { fill: #f5f3ff; stroke: #c4b5fd; }
    .box-ext { fill: #dbeafe; stroke: #2563eb; }
    .box-srv { fill: #ffedd5; stroke: #ea580c; }
    .box-app { fill: #dcfce7; stroke: #16a34a; }
    .box-win { fill: #ede9fe; stroke: #7c3aed; }
    .txt-ext { fill: #1e3a8a; }
    .txt-srv { fill: #7c2d12; }
    .txt-app { fill: #14532d; }
    .txt-win { fill: #4c1d95; }
    .title-ext { fill: #1d4ed8; }
    .title-srv { fill: #c2410c; }
    .title-app { fill: #15803d; }
    .title-win { fill: #6d28d9; }
    .arrow { stroke: #64748b; fill: none; }
    .arrow-dash { stroke: #2563eb; fill: none; }
    .head { fill: #64748b; }
    .head-dash { fill: #2563eb; }
    .note { fill: #475569; }
    @media (prefers-color-scheme: dark) {
        .band-ext { fill: #172554; stroke: #3b82f6; }
        .band-srv { fill: #431407; stroke: #ea580c; }
        .band-app { fill: #052e16; stroke: #22c55e; }
        .band-win { fill: #2e1065; stroke: #8b5cf6; }
        .box-ext { fill: #1e3a8a; stroke: #60a5fa; }
        .box-srv { fill: #7c2d12; stroke: #fb923c; }
        .box-app { fill: #14532d; stroke: #4ade80; }
        .box-win { fill: #4c1d95; stroke: #a78bfa; }
        .txt-ext { fill: #dbeafe; }
        .txt-srv { fill: #ffedd5; }
        .txt-app { fill: #dcfce7; }
        .txt-win { fill: #ede9fe; }
        .title-ext { fill: #93c5fd; }
        .title-srv { fill: #fdba74; }
        .title-app { fill: #86efac; }
        .title-win { fill: #c4b5fd; }
        .arrow { stroke: #94a3b8; }
        .arrow-dash { stroke: #60a5fa; }
        .head { fill: #94a3b8; }
        .head-dash { fill: #60a5fa; }
        .note { fill: #cbd5e1; }
    }
</style>
<rect class="band-ext" x="16" y="16" width="448" height="132" rx="12" stroke-width="1.5"/>
<text class="title-ext" x="32" y="39" font-size="13" font-weight="700" letter-spacing="0.6">ЗОВНІШНІ СЕРВІСИ</text>
<rect class="box-ext" x="32" y="50" width="208" height="38" rx="8" stroke-width="1.5"/>
<text class="txt-ext" x="136" y="74" font-size="15" text-anchor="middle">alerts.in.ua</text>
<rect class="box-ext" x="248" y="50" width="208" height="38" rx="8" stroke-width="1.5"/>
<text class="txt-ext" x="352" y="74" font-size="15" text-anchor="middle">Neptun</text>
<rect class="box-ext" x="32" y="96" width="208" height="38" rx="8" stroke-width="1.5"/>
<text class="txt-ext" x="136" y="120" font-size="15" text-anchor="middle">DeepState</text>
<rect class="box-ext" x="248" y="96" width="208" height="38" rx="8" stroke-width="1.5"/>
<text class="txt-ext" x="352" y="120" font-size="15" text-anchor="middle">Kaggle</text>
<line class="arrow" x1="180" y1="148" x2="180" y2="180" stroke-width="2"/>
<path class="head" d="M174 178 L180 186 L186 178 Z"/>
<text class="note" x="196" y="172" font-size="13">опитування і потоки</text>
<rect class="band-srv" x="16" y="186" width="448" height="178" rx="12" stroke-width="1.5"/>
<text class="title-srv" x="32" y="209" font-size="13" font-weight="700" letter-spacing="0.6">СЕРВЕР ALERT SERVER</text>
<rect class="box-srv" x="32" y="220" width="208" height="38" rx="8" stroke-width="1.5"/>
<text class="txt-srv" x="136" y="244" font-size="15" text-anchor="middle">Опитувачі джерел</text>
<rect class="box-srv" x="248" y="220" width="208" height="38" rx="8" stroke-width="1.5"/>
<text class="txt-srv" x="352" y="244" font-size="15" text-anchor="middle">Архів тривог і загроз</text>
<rect class="box-srv" x="32" y="266" width="208" height="38" rx="8" stroke-width="1.5"/>
<text class="txt-srv" x="136" y="290" font-size="15" text-anchor="middle">Прогноз і тенденції</text>
<rect class="box-srv" x="248" y="266" width="208" height="38" rx="8" stroke-width="1.5"/>
<text class="txt-srv" x="352" y="290" font-size="15" text-anchor="middle">Аналітика загроз</text>
<rect class="box-srv" x="32" y="312" width="416" height="38" rx="8" stroke-width="1.5"/>
<text class="txt-srv" x="240" y="336" font-size="15" text-anchor="middle">HTTPS та WebSocket API</text>
<line class="arrow" x1="180" y1="364" x2="180" y2="396" stroke-width="2"/>
<path class="head" d="M174 394 L180 402 L186 394 Z"/>
<text class="note" x="196" y="380" font-size="13">WebSocket-передача,</text>
<text class="note" x="196" y="396" font-size="13">опитування лише при обриві</text>
<rect class="band-app" x="16" y="402" width="448" height="178" rx="12" stroke-width="1.5"/>
<text class="title-app" x="32" y="425" font-size="13" font-weight="700" letter-spacing="0.6">ЗАСТОСУНОК (ELECTRON)</text>
<rect class="box-app" x="32" y="436" width="208" height="38" rx="8" stroke-width="1.5"/>
<text class="txt-app" x="136" y="460" font-size="15" text-anchor="middle">Джерела з резервуванням</text>
<rect class="box-app" x="248" y="436" width="208" height="38" rx="8" stroke-width="1.5"/>
<text class="txt-app" x="352" y="460" font-size="15" text-anchor="middle">Сповіщення і трей</text>
<rect class="box-app" x="32" y="482" width="208" height="38" rx="8" stroke-width="1.5"/>
<text class="txt-app" x="136" y="506" font-size="15" text-anchor="middle">Спостерігач прогнозу</text>
<rect class="box-app" x="248" y="482" width="208" height="38" rx="8" stroke-width="1.5"/>
<text class="txt-app" x="352" y="506" font-size="15" text-anchor="middle">Налаштування і сховища</text>
<rect class="box-app" x="32" y="528" width="164" height="38" rx="8" stroke-width="1.5"/>
<text class="txt-app" x="114" y="552" font-size="15" text-anchor="middle">Оновлення</text>
<rect class="box-ext" x="284" y="528" width="164" height="38" rx="8" stroke-width="1.5"/>
<text class="txt-ext" x="366" y="552" font-size="15" text-anchor="middle">GitHub Releases</text>
<line class="arrow-dash" x1="196" y1="547" x2="274" y2="547" stroke-width="2" stroke-dasharray="5 4"/>
<path class="head-dash" d="M272 541 L284 547 L272 553 Z"/>
<line class="arrow" x1="180" y1="580" x2="180" y2="612" stroke-width="2"/>
<path class="head" d="M174 610 L180 618 L186 610 Z"/>
<text class="note" x="196" y="604" font-size="13">клік по трею і плитки</text>
<rect class="band-win" x="16" y="618" width="448" height="178" rx="12" stroke-width="1.5"/>
<text class="title-win" x="32" y="641" font-size="13" font-weight="700" letter-spacing="0.6">ГОЛОВНЕ ВІКНО (ПЛИТКИ)</text>
<rect class="box-win" x="32" y="652" width="133" height="38" rx="8" stroke-width="1.5"/>
<text class="txt-win" x="98.5" y="676" font-size="15" text-anchor="middle">Поточний статус</text>
<rect class="box-win" x="173.5" y="652" width="133" height="38" rx="8" stroke-width="1.5"/>
<text class="txt-win" x="240" y="676" font-size="15" text-anchor="middle">Жива мапа</text>
<rect class="box-win" x="315" y="652" width="133" height="38" rx="8" stroke-width="1.5"/>
<text class="txt-win" x="381.5" y="676" font-size="15" text-anchor="middle">Прогноз</text>
<rect class="box-win" x="32" y="698" width="133" height="38" rx="8" stroke-width="1.5"/>
<text class="txt-win" x="98.5" y="722" font-size="15" text-anchor="middle">Тенденції</text>
<rect class="box-win" x="173.5" y="698" width="133" height="38" rx="8" stroke-width="1.5"/>
<text class="txt-win" x="240" y="722" font-size="15" text-anchor="middle">Налаштування</text>
<rect class="box-win" x="315" y="698" width="133" height="38" rx="8" stroke-width="1.5"/>
<text class="txt-win" x="381.5" y="722" font-size="15" text-anchor="middle">Журнал подій</text>
<rect class="box-win" x="32" y="744" width="133" height="38" rx="8" stroke-width="1.5"/>
<text class="txt-win" x="98.5" y="768" font-size="15" text-anchor="middle">Про застосунок</text>
</svg>
